<?xml version="1.0" encoding="utf-8"?>
<!-- Generator: Adobe Illustrator 21.1.0, SVG Export Plug-In . SVG Version: 6.00 Build 0)  -->
<svg version="1.1" id="Livello_1" xmlns="http://www.w3.org/2000/svg" xmlns:xlink="http://www.w3.org/1999/xlink" x="0px" y="0px"
	 viewBox="0 0 226 80" style="enable-background:new 0 0 226 80;" xml:space="preserve">
<style type="text/css">
	.st0{fill:#FFFFFF;}
</style>
<g>
	<path class="st0" d="M21.5,33.7l-3.9-8.9l-1.8,8.9L9.9,63.1H0.4l13-63h1l17.3,34.1l5.1,11.4l5.1-11.4L59.1,0H60l13.6,63h-9.4
		l-6.3-29.4l-1.9-8.9l-3.4,8.9L37.2,63.1h-0.5L21.5,33.7z"/>
	<path class="st0" d="M154.7,33.7l-3.9-8.9l-1.8,8.9l-5.8,29.4h-9.5l13-63h1L165,34.1l5.1,11.4l5.1-11.4l17-34.1h0.9l13.6,63h-9.4
		L191,33.7l-1.9-8.9l-3.4,8.9l-15.3,29.4h-0.5L154.7,33.7z"/>
	<path class="st0" d="M83.3,10.3c-1.2-1.2-1.8-2.7-1.8-4.5c0-1.6,0.6-3,1.8-4.1C84.5,0.6,86,0,87.8,0c1.7,0,3.2,0.6,4.4,1.7
		C93.4,2.9,94,4.3,94,5.9c0,1.8-0.6,3.3-1.8,4.5c-1.2,1.2-2.6,1.8-4.4,1.8C86,12.1,84.5,11.5,83.3,10.3z M115.8,10.3
		c-1.2-1.2-1.8-2.7-1.8-4.5c0-1.6,0.6-3,1.8-4.1c1.2-1.1,2.7-1.7,4.5-1.7c1.7,0,3.2,0.6,4.4,1.7c1.2,1.1,1.8,2.5,1.8,4.1
		c0,1.8-0.6,3.3-1.8,4.5c-1.2,1.2-2.6,1.8-4.4,1.8C118.4,12.1,117,11.5,115.8,10.3z"/>
	<rect x="216" y="23.7" class="st0" width="9.6" height="39.4"/>
	<path class="st0" d="M115.2,23v16.2v3.5c0,6.4-5.2,11.6-11.6,11.6S92,49.2,92,42.8V23.1h-9.2v19.7c0,11.5,9.3,20.8,20.8,20.8
		c4.3,0,8.3-1.3,11.6-3.5c-0.5,5.9-5.5,10.6-11.6,10.6H91.9v9.2h11.7c11.5,0,20.8-9.3,20.8-20.8V42.8v-3.4V23.2L115.2,23z"/>
</g>
</svg>
